<?xml version="1.0" encoding="utf-8"?>
<!-- Generator: Adobe Illustrator 23.0.1, SVG Export Plug-In . SVG Version: 6.00 Build 0)  -->
<svg version="1.1" id="Layer_1" xmlns="http://www.w3.org/2000/svg" xmlns:xlink="http://www.w3.org/1999/xlink" x="0px" y="0px"
	 viewBox="0 0 1000 1000" style="enable-background:new 0 0 1000 1000;" xml:space="preserve">
<style type="text/css">
	.st0{fill:#FFFFFF;}
	.st1{fill:#C8202F;}
	.st2{fill:#1D4488;}
	.st3{fill-rule:evenodd;clip-rule:evenodd;fill:#1D4488;}
	.st4{fill:#020202;}
	.st5{fill-rule:evenodd;clip-rule:evenodd;fill:#020202;}
	.st6{fill:#D1D3D4;}
	.st7{fill-rule:evenodd;clip-rule:evenodd;fill:#D1D3D4;}
</style>
<g id="g3063_2_" transform="matrix(1.9496062,0,0,1.9496062,-581.90308,554.96308)">
	<g id="g3122_2_" transform="translate(0,-378.68855)">
		<g id="g3029_2_" transform="matrix(0.7048565,0,0,0.7048565,298.47211,94.034611)">
			<path id="rect2987_2_" class="st0" d="M64,165.1h93.4c22.7,0,40.9,18.2,40.9,40.9v315.7c0,22.7-18.2,40.9-40.9,40.9H64
				c-22.7,0-40.9-18.2-40.9-40.9V206C23.1,183.3,41.3,165.1,64,165.1z"/>
			<path id="path2989_2_" class="st6" d="M134.2,237.9l0.1,1.3c2.8,1.7,4.3,3,7.2,4.9c7.6,4.8,16.8,13.3,15.7,42.6
				c2.2,6.4,3.1,18.9,5.1,22.9c3.9,7.9,6.6,13,7.7,20.4c0,0,1.2,11.5,2.6,12.4c7.8,1.8,5.6,2.6,6.7,4c1.2,1.5,5.8,1.5,5.8,5.7
				c1.6,2.1,2.8,4.2,3.7,6.5V206.3c0-17.4-14.1-31.5-31.4-31.5h-30c4.8,1.7,7.6,3.8,9.2,7c3.8,0.3,8.4,9,1.3,21.8
				c3.1,2.2,0.7,5.4-1.5,9c-0.7,1.2-1.4,3.3-3.5,3.1c-2.8,5.8-6.1,11.3-8.6,11.7c-0.7,0.9-1.2,3.4-0.1,4.5
				C127.5,233.7,131.9,235.8,134.2,237.9L134.2,237.9z"/>
			<path id="path2991_2_" class="st6" d="M162.2,552.5l-0.3,0.1c13.8-8.4,5.3-24.3,2.6-33.6l0.5-1.6c0.7-1.3-0.8-4.3-0.8-4.3
				c-1.7-1.4-2.1-9.2-3-12.8c-1.5-5.8,2.6-16,2.6-19.5c0-3.5-2.6-8.2-7.4-14.2c-1.2-1.3-4.6-30.9-7.7-38.4
				c-4.3-10.3-5.6-8.6-10.7-21c-3.9-8.6-0.8-21.4-9.7-51l2-1.9c0,0-7-25.7-9.4-32.8c-2.2-7-6.4-7.5-6.4-7.5l0.3-3.7
				c0.3-1.1,8.6-22.5,9.3-23.2c0.1-0.4,11.9-8.6,12.1-7.4c1,5.3,5.6,32,7.6,36.2c2,4.3,8.8,17.4,12,25.5
				c-12.2,3-21.4,14.1-21.4,27.2c0,15.5,12.6,28.1,28,28.1c11.8,0,22.1-7.4,26.2-17.7l-0.1,142.4
				C188.7,537.2,177.3,550.2,162.2,552.5L162.2,552.5z"/>
			<path id="path2993_2_" class="st6" d="M117.3,174.8c-10.2,4-11.7,8.4-12,22.6c-1.7,0.2-5.3-1.5-4.1,7.2c0,0,0.6,5.8,2.9,4.8
				c-1.8,12.6-0.4,15.7-8.7,16.6c-1.8,0.2-4,0.3-6.7,0.4l-0.8,1.2c-11.4,1.1-17,0.4-24.4,10.1c-2.8,3.7-5.8,9-9.5,16.5
				c0,0-3.4,8.4-4.4,11.8c-3.3,6.9-11.3,22-13.6,31.8c-0.8,3.3-2.2,4.4-0.1,9.2c3.1,6.9-2,8.7,15.8,8.2v4.1c0,0-4.7,4.1-5.8,6.5
				c-1,2.5-3.7,14.7-3.6,20.6c0.3,15.2,12.7,27.9,16.3,43l8.3,1.2c4.5,10.3,24.1,38.1,28.6,42.6c0.1,0.1,0.1,0.1,0.2,0.2
				c1,2.6,6.1,5.9,9,9.2c1.8,1.7,10.1,10.7,21.1,19.2c4,3.1,8.4,6.2,12.9,8.8c-0.1-0.1,2.7,5.6,4.1,10.2c-5.6,4.5,5.3,12.9,8.6,26.6
				c0.2,1.9-3.2,3.7,1.9,8.3c-0.3,20.8-6.7,31.7,4,37.5H63.5c-17-0.4-30.8-14.3-30.8-31.4V206.3c0-17.2,13.8-31.1,30.8-31.5H117.3z"
				/>
		</g>
		<g id="g3102_2_" transform="matrix(5.917629,0,0,6.6180124,-1431.5389,-2152.8646)">
			<path id="rect3035_2_" class="st7" d="M321.6,358.1v40.2h4.9c0-10.4,0.3-20.8-0.4-31l5.6,31h7v-40.2h-4.8
				c-0.1,10.7,0.3,21.2,1.1,31.6l-5.8-31.6H321.6z"/>
			<path id="rect3043_2_" class="st7" d="M363.7,358.1l-4.8,40.3h5.9l0.8-8.1h3.9l0.8,8.1h5.9l-4.6-40.3H363.7z M367.6,369.5l1.5,16
				h-3L367.6,369.5z"/>
			<path id="path3059_2_" class="st6" d="M342.3,358.1v40.2h8.7c1.4,0,6.3-1.1,6.3-6.7v-8c0-0.8,0-3.5-2.6-5.1
				c1.6,0,2.6-2.8,2.6-5.4v-8.6c0-3.4-2.3-6.5-7-6.4H342.3z M347.7,363.3h2.6c1.2,0,1.6,1.2,1.6,2.1v9.4c0,1.6-0.6,1.7-1.8,1.7h-2.4
				V363.3z M347.7,380.8h2.6c1.2,0,1.6,1.2,1.6,2.1v8.4c0,1.1-0.6,1.9-1.8,1.9l-2.4,0V380.8L347.7,380.8z"/>
		</g>
	</g>
</g>
</svg>
