<?xml version="1.0" encoding="UTF-8"?>
<svg id="_Слой_1" data-name="Слой 1" xmlns="http://www.w3.org/2000/svg" viewBox="0 0 798.31 663.48">
  <defs>
    <style>
      .cls-1 {
        fill: #181b21;
      }

      .cls-1, .cls-2, .cls-3, .cls-4 {
        fill-rule: evenodd;
      }

      .cls-2 {
        fill: #c85e16;
      }

      .cls-3 {
        fill: #a85c0c;
      }

      .cls-4 {
        fill: #e0a30c;
      }
    </style>
  </defs>
  <polygon class="cls-4" points="0 663.48 388.47 451.09 125.05 663.48 444.69 480.09 439.44 517.06 492.73 487.49 613.12 601.16 677.23 408.93 758.54 397.31 722.76 286.35 798.31 220.76 698.16 178.56 725.68 61.95 633.27 104.18 589.78 0 511.67 77.65 383.17 10.42 360.16 136.7 241.48 162.39 311.7 204.65 241.04 240.04 301.09 245.24 54.15 436.97 302.55 305.24 36.11 507.74 319.72 360.14 16.77 587.56 350.63 409.93 0 663.48"/>
  <path class="cls-2" d="M710.86,288.07c-4.39,106.59-94.52,189.39-201.29,184.99-106.74-4.39-189.69-94.37-185.27-200.93,4.4-106.6,94.52-189.4,201.25-185.01,106.76,4.41,189.73,94.37,185.31,200.95Z"/>
  <path class="cls-3" d="M541.28,446.71c-106.73-4.42-189.71-94.39-185.3-200.96,2.03-49.34,22.42-93.52,54.32-126.36-49.65,33.09-83.36,88.56-85.99,152.73-4.43,106.56,78.54,196.54,185.27,200.93,57.37,2.39,109.91-20.48,146.93-58.64-32.86,21.92-72.7,34.05-115.23,32.31Z"/>
  <path class="cls-1" d="M710.97,282.35c.09-6.93-.19-13.76-.83-20.51-11.17-7.76-24.44-13.68-40.13-15.7-2.98-.37-5.84-.54-8.72-.75-1.88-12.77-4.77-25.26-8.61-37.41,1.99,.14,4.03,.21,6.04,.35,13.62,1.01,27.02,2.55,40.24,4.47-1.81-4.92-3.9-9.72-6.12-14.45-14.86-2.27-29.97-4.02-45.27-5.18h-.14c-4.92-12.43-10.89-24.38-17.91-35.78,9.89-2.03,18.7-6.06,25.84-12.8-3.62-3.69-7.45-7.27-11.39-10.67-6.19,5.7-14.25,8.74-23.5,9.96-1.43-1.97-2.83-3.95-4.31-5.88-13.13-17.05-28.29-31.64-44.98-43.5-14.57-4.19-29.79-6.74-45.62-7.38-.88-.04-1.74-.01-2.64-.06,29.42,11.54,55.67,30.93,76.79,56.9-20.13-1.93-43.34-8.68-66.29-15.38-6.8-2.02-13.45-3.98-19.88-5.74-39.09-10.78-69.13-12.51-91.7-10.55-16.77,9.52-31.93,21.52-45.11,35.46,24.37-10.15,73.49-27.47,133.11-11,6.34,1.75,12.91,3.68,19.61,5.63,26.35,7.73,55.88,16.36,81.46,16.64,7.03,10.48,13.13,21.53,18.16,33.08-4.98-.23-9.99-.39-14.96-.48-124.23-2.14-230.72,34.99-289.85,94.18,.34,11.75,1.69,23.27,4.04,34.46,16.68-23.9,41.36-45.48,73.22-63.38,60.13-33.74,139.9-51.49,224.68-50.01,2.9,.04,5.84,.15,8.75,.27,4.29,12.24,7.49,24.91,9.51,37.91-54.59,2.28-90.01,36.33-130.62,72.51-36.5,32.61-81,65.06-146.13,84.6,6.13,7.52,12.8,14.57,20.02,21.08,61.38-24.65,102.14-63.07,136.6-93.82,39.1-34.93,72.68-68.4,122-70.04,1.26,13.61,1.31,27.47,.06,41.47-6.63,75.66-50.51,139.82-110.35,171.46,15.32-1.43,30.13-4.68,44.24-9.53,4.79-3.96,9.48-8.12,13.97-12.55,39.25-38.58,63.62-91.13,68.6-147.95,1.25-14.21,1.25-28.32,.09-42.22,2.46,.27,4.92,.48,7.43,.91,16.82,2.73,30.15,11.19,40.58,21.39Z"/>
</svg>